<?xml version="1.0" ?><svg viewBox="0 0 512 512" xmlns="http://www.w3.org/2000/svg"><defs><style>.cls-1{fill:#fff;}</style></defs><title/><g data-name="Layer 2" id="Layer_2"><path d="M256,8a248.0675,248.0675,0,0,1,96.53,476.5142A248.0663,248.0663,0,0,1,159.47,27.4858,246.4381,246.4381,0,0,1,256,8m0-8C114.6151,0,0,114.615,0,256S114.6151,512,256,512,512,397.385,512,256,397.3849,0,256,0Z"/><path d="M189.2354,257.2852A59.0142,59.0142,0,1,1,248.25,198.2715,59.0808,59.0808,0,0,1,189.2354,257.2852Zm0-110.0284A51.0142,51.0142,0,1,0,240.25,198.2715,51.0718,51.0718,0,0,0,189.2354,147.2568Z"/><path d="M280.9253,348.9746H97.5459a4,4,0,0,1-4-4,95.69,95.69,0,0,1,191.3794,0A4,4,0,0,1,280.9253,348.9746Zm-179.29-8h175.2a87.6912,87.6912,0,0,0-175.2,0Z"/><path d="M322.7646,257.2852a59.0142,59.0142,0,1,1,59.0137-59.0137A59.0809,59.0809,0,0,1,322.7646,257.2852Zm0-110.0284a51.0142,51.0142,0,1,0,51.0137,51.0147A51.072,51.072,0,0,0,322.7646,147.2568Z"/><path d="M414.4541,348.9746H231.0747a4,4,0,0,1-4-4,95.69,95.69,0,0,1,191.3794,0A4,4,0,0,1,414.4541,348.9746Zm-179.2895-8h175.2a87.6912,87.6912,0,0,0-175.2,0Z"/><circle class="cls-1" cx="256" cy="222.0392" r="55.0139"/><path class="cls-1" d="M256,277.053h0a91.69,91.69,0,0,1,91.69,91.69v0a0,0,0,0,1,0,0H164.31a0,0,0,0,1,0,0v0A91.69,91.69,0,0,1,256,277.053Z"/><path d="M256,281.0527a59.0137,59.0137,0,1,1,59.0137-59.0136A59.0808,59.0808,0,0,1,256,281.0527Zm0-110.0273a51.0137,51.0137,0,1,0,51.0137,51.0137A51.0717,51.0717,0,0,0,256,171.0254Z"/><path d="M347.69,372.7432H164.31a4,4,0,0,1-4-4,95.69,95.69,0,1,1,191.38,0A4,4,0,0,1,347.69,372.7432Zm-179.29-8H343.6a87.6914,87.6914,0,0,0-175.2,0Z"/></g></svg>