<svg width="1485.001" height="72.801" viewBox="0 0 1485.001 72.801" xmlns="http://www.w3.org/2000/svg"><g id="svgGroup" stroke-linecap="round" fill-rule="evenodd" font-size="9pt" stroke="#030c47" stroke-width="0.25mm" fill="#090f52" style="stroke:#030c47;stroke-width:0.25mm;fill:#090f52" ><path class="anim_e" d="M 28.8 72.801 L 0 1.401 L 7.3 1.401 L 31.8 62.601 L 32.4 62.601 L 48.4 23.001 L 39.7 1.401 L 47 1.401 L 71.4 62.401 L 72 62.401 L 92.2 1.401 L 99.5 1.401 L 70.7 72.801 L 68.5 72.801 L 49.8 26.301 L 31 72.801 L 28.8 72.801 Z M 1139.2 72.801 L 1110.4 1.401 L 1117.7 1.401 L 1142.2 62.601 L 1142.8 62.601 L 1158.8 23.001 L 1150.1 1.401 L 1157.4 1.401 L 1181.8 62.401 L 1182.4 62.401 L 1202.6 1.401 L 1209.9 1.401 L 1181.1 72.801 L 1178.9 72.801 L 1160.2 26.301 L 1141.4 72.801 L 1139.2 72.801 Z M 436.3 1.401 L 443.5 1.401 L 443.5 71.401 L 436.7 71.401 L 436.7 7.201 L 436.1 7.201 L 411.9 53.601 L 408.8 53.601 L 381.3 12.701 L 380.7 12.701 L 382.9 71.401 L 376.1 71.401 L 378.6 0.001 L 380.6 0.001 L 412.1 46.801 L 412.7 46.801 L 436.3 1.401 Z M 793.7 71.401 L 793.7 1.401 L 807.1 1.401 A 40.929 40.929 0 0 1 813.261 1.835 Q 816.59 2.343 819.286 3.445 A 18.655 18.655 0 0 1 823.55 5.851 Q 829.4 10.301 829.4 18.301 A 17.311 17.311 0 0 1 828.714 23.282 A 13.889 13.889 0 0 1 825.75 28.601 A 15.754 15.754 0 0 1 820.637 32.349 Q 818.552 33.334 815.994 33.928 A 29.141 29.141 0 0 1 815.2 34.101 L 815.2 34.701 Q 821.8 36.001 826 40.901 A 29.71 29.71 0 0 1 830.608 48.322 A 38.012 38.012 0 0 1 832.3 53.001 A 100.407 100.407 0 0 0 833.483 56.838 Q 834.778 60.741 836.05 63.251 A 21.243 21.243 0 0 0 837.338 65.472 Q 838.656 67.438 840.15 68.501 A 13.673 13.673 0 0 0 843.469 70.213 A 17.192 17.192 0 0 0 845.5 70.801 L 845.5 71.401 L 841.4 71.401 A 19.891 19.891 0 0 1 838.325 71.177 Q 835.934 70.802 834.15 69.801 A 10.44 10.44 0 0 1 831.446 67.576 Q 830.511 66.518 829.703 65.13 A 19.678 19.678 0 0 1 829.3 64.401 A 31.346 31.346 0 0 1 828.07 61.742 Q 826.823 58.715 825.66 54.489 A 99.161 99.161 0 0 1 825.5 53.901 Q 822.766 44.19 818.343 39.813 A 15 15 0 0 0 817.8 39.301 A 16.735 16.735 0 0 0 806.954 35.017 A 21.533 21.533 0 0 0 806.1 35.001 L 805.5 35.001 L 805.5 33.201 L 806.1 33.201 Q 819.762 33.201 821.831 22.544 A 21.762 21.762 0 0 0 822.2 18.401 A 20.251 20.251 0 0 0 821.425 12.534 Q 818.779 3.801 807.1 3.801 L 800.5 3.801 L 800.5 71.401 L 793.7 71.401 Z M 1314.3 71.401 L 1314.3 1.401 L 1327.7 1.401 A 40.929 40.929 0 0 1 1333.861 1.835 Q 1337.19 2.343 1339.886 3.445 A 18.655 18.655 0 0 1 1344.15 5.851 Q 1350 10.301 1350 18.301 A 17.311 17.311 0 0 1 1349.314 23.282 A 13.889 13.889 0 0 1 1346.35 28.601 A 15.754 15.754 0 0 1 1341.237 32.349 Q 1339.152 33.334 1336.594 33.928 A 29.141 29.141 0 0 1 1335.8 34.101 L 1335.8 34.701 Q 1342.4 36.001 1346.6 40.901 A 29.71 29.71 0 0 1 1351.208 48.322 A 38.012 38.012 0 0 1 1352.9 53.001 A 100.407 100.407 0 0 0 1354.083 56.838 Q 1355.378 60.741 1356.65 63.251 A 21.243 21.243 0 0 0 1357.938 65.472 Q 1359.256 67.438 1360.75 68.501 A 13.673 13.673 0 0 0 1364.069 70.213 A 17.192 17.192 0 0 0 1366.1 70.801 L 1366.1 71.401 L 1362 71.401 A 19.891 19.891 0 0 1 1358.925 71.177 Q 1356.534 70.802 1354.75 69.801 A 10.44 10.44 0 0 1 1352.046 67.576 Q 1351.111 66.518 1350.303 65.13 A 19.678 19.678 0 0 1 1349.9 64.401 A 31.346 31.346 0 0 1 1348.67 61.742 Q 1347.423 58.715 1346.26 54.489 A 99.161 99.161 0 0 1 1346.1 53.901 Q 1343.366 44.19 1338.943 39.813 A 15 15 0 0 0 1338.4 39.301 A 16.735 16.735 0 0 0 1327.554 35.017 A 21.533 21.533 0 0 0 1326.7 35.001 L 1326.1 35.001 L 1326.1 33.201 L 1326.7 33.201 Q 1340.362 33.201 1342.431 22.544 A 21.762 21.762 0 0 0 1342.8 18.401 A 20.251 20.251 0 0 0 1342.025 12.534 Q 1339.379 3.801 1327.7 3.801 L 1321.1 3.801 L 1321.1 71.401 L 1314.3 71.401 Z M 268.2 62.801 L 268.8 62.801 L 268.2 68.901 Q 265.4 70.101 261.4 71.001 Q 257.4 71.901 253.3 72.351 Q 249.632 72.753 246.685 72.796 A 47.569 47.569 0 0 1 246 72.801 A 41.875 41.875 0 0 1 235.43 71.501 A 37.277 37.277 0 0 1 231 70.051 Q 224.1 67.301 218.95 62.401 Q 213.8 57.501 210.9 50.851 A 35.27 35.27 0 0 1 208.035 38.093 A 40.981 40.981 0 0 1 208 36.401 A 36.815 36.815 0 0 1 209.564 25.565 A 33.759 33.759 0 0 1 210.9 21.951 Q 213.8 15.301 218.95 10.401 Q 224.1 5.501 231 2.751 Q 237.9 0.001 246 0.001 Q 249.194 0.001 253.137 0.469 A 84.574 84.574 0 0 1 253.4 0.501 Q 257.5 1.001 261.4 1.851 Q 265.3 2.701 268 3.801 L 267.5 9.401 L 266.9 9.401 A 22.654 22.654 0 0 0 261.38 5.701 A 29.283 29.283 0 0 0 257.6 4.201 Q 252 2.401 246 2.401 A 32.298 32.298 0 0 0 237.044 3.6 A 27.322 27.322 0 0 0 230.15 6.651 A 28.814 28.814 0 0 0 219.818 17.841 A 34.385 34.385 0 0 0 219.45 18.551 A 35.459 35.459 0 0 0 216.164 28.965 A 47.108 47.108 0 0 0 215.6 36.401 A 46.493 46.493 0 0 0 216.39 45.181 A 34.465 34.465 0 0 0 219.45 54.301 A 30.057 30.057 0 0 0 226.23 63.25 A 28.362 28.362 0 0 0 230.1 66.151 Q 236.9 70.401 246 70.401 A 37.008 37.008 0 0 0 255.189 69.289 A 33.075 33.075 0 0 0 258.65 68.201 A 38.863 38.863 0 0 0 263.319 66.105 Q 265.669 64.846 267.528 63.359 A 22.732 22.732 0 0 0 268.2 62.801 Z M 945.7 72.801 L 913.9 1.401 L 921.4 1.401 L 948.7 63.601 L 949.3 63.601 L 972.2 1.401 L 979.7 1.401 L 947.9 72.801 L 945.7 72.801 Z M 145.9 71.401 L 115.1 71.401 L 115.1 1.401 L 145.6 1.401 L 145.6 6.301 L 128.1 4.001 A 165.991 165.991 0 0 0 126.231 3.767 Q 123.692 3.465 122.396 3.412 A 12.242 12.242 0 0 0 121.9 3.401 L 121.9 33.901 A 22.288 22.288 0 0 0 122.514 33.89 Q 124.119 33.844 128.1 33.601 L 144.5 32.601 L 144.5 37.201 L 128.1 36.201 A 488.985 488.985 0 0 0 126.389 36.099 Q 122.956 35.901 121.9 35.901 L 121.9 69.401 A 17.975 17.975 0 0 0 122.964 69.363 Q 124.736 69.256 127.895 68.841 A 167.949 167.949 0 0 0 128.2 68.801 L 145.9 66.501 L 145.9 71.401 Z M 500.3 71.401 L 469.5 71.401 L 469.5 1.401 L 500 1.401 L 500 6.301 L 482.5 4.001 A 165.991 165.991 0 0 0 480.631 3.767 Q 478.092 3.465 476.796 3.412 A 12.242 12.242 0 0 0 476.3 3.401 L 476.3 33.901 A 22.288 22.288 0 0 0 476.914 33.89 Q 478.519 33.844 482.5 33.601 L 498.9 32.601 L 498.9 37.201 L 482.5 36.201 A 488.985 488.985 0 0 0 480.789 36.099 Q 477.356 35.901 476.3 35.901 L 476.3 69.401 A 17.975 17.975 0 0 0 477.364 69.363 Q 479.136 69.256 482.295 68.841 A 167.949 167.949 0 0 0 482.6 68.801 L 500.3 66.501 L 500.3 71.401 Z M 1026.1 71.401 L 995.3 71.401 L 995.3 1.401 L 1025.8 1.401 L 1025.8 6.301 L 1008.3 4.001 A 165.991 165.991 0 0 0 1006.431 3.767 Q 1003.892 3.465 1002.596 3.412 A 12.242 12.242 0 0 0 1002.1 3.401 L 1002.1 33.901 A 22.288 22.288 0 0 0 1002.714 33.89 Q 1004.319 33.844 1008.3 33.601 L 1024.7 32.601 L 1024.7 37.201 L 1008.3 36.201 A 488.985 488.985 0 0 0 1006.589 36.099 Q 1003.156 35.901 1002.1 35.901 L 1002.1 69.401 A 17.975 17.975 0 0 0 1003.164 69.363 Q 1004.936 69.256 1008.095 68.841 A 167.949 167.949 0 0 0 1008.4 68.801 L 1026.1 66.501 L 1026.1 71.401 Z M 571.1 71.401 L 564.3 71.401 L 564.3 3.401 A 13.972 13.972 0 0 0 563.491 3.429 Q 561.772 3.532 558.1 4.001 L 538.5 6.501 L 538.5 1.401 L 596.9 1.401 L 596.9 6.501 L 577.3 4.001 A 186.77 186.77 0 0 0 575.397 3.767 Q 572.833 3.466 571.583 3.412 A 11.356 11.356 0 0 0 571.1 3.401 L 571.1 71.401 Z M 751.7 71.401 L 744.9 71.401 L 744.9 3.401 A 13.972 13.972 0 0 0 744.091 3.429 Q 742.372 3.532 738.7 4.001 L 719.1 6.501 L 719.1 1.401 L 777.5 1.401 L 777.5 6.501 L 757.9 4.001 A 186.77 186.77 0 0 0 755.997 3.767 Q 753.433 3.466 752.183 3.412 A 11.356 11.356 0 0 0 751.7 3.401 L 751.7 71.401 Z M 854.8 71.401 L 847.5 71.401 L 874.4 1.401 L 880.6 1.401 L 907.5 71.401 L 900.2 71.401 L 887.8 38.601 L 865.1 38.601 L 854.8 71.401 Z M 1446.6 71.401 L 1424.6 71.401 L 1424.6 1.401 L 1446.6 1.401 A 51.613 51.613 0 0 1 1456.656 2.335 A 38.684 38.684 0 0 1 1466.8 5.801 Q 1475.4 10.201 1480.2 18.051 A 32.595 32.595 0 0 1 1484.661 31.009 A 41.751 41.751 0 0 1 1485 36.401 Q 1485 46.901 1480.2 54.751 Q 1475.4 62.601 1466.8 67.001 A 39.182 39.182 0 0 1 1455.53 70.674 A 52.603 52.603 0 0 1 1446.6 71.401 Z M 285.478 25.01 A 37.997 37.997 0 0 0 283.8 36.401 A 42.319 42.319 0 0 0 283.824 37.835 A 36.774 36.774 0 0 0 286.55 50.751 Q 289.3 57.401 294.25 62.351 Q 299.2 67.301 305.85 70.051 A 35.191 35.191 0 0 0 308.81 71.122 A 37.997 37.997 0 0 0 320.2 72.801 A 42.319 42.319 0 0 0 321.635 72.776 A 36.774 36.774 0 0 0 334.55 70.051 Q 341.2 67.301 346.15 62.351 Q 351.1 57.401 353.85 50.751 A 35.191 35.191 0 0 0 354.922 47.791 A 37.997 37.997 0 0 0 356.6 36.401 A 42.319 42.319 0 0 0 356.576 34.966 A 36.774 36.774 0 0 0 353.85 22.051 Q 351.1 15.401 346.15 10.451 Q 341.2 5.501 334.55 2.751 A 35.191 35.191 0 0 0 331.59 1.679 A 37.997 37.997 0 0 0 320.2 0.001 A 42.319 42.319 0 0 0 318.765 0.025 A 36.774 36.774 0 0 0 305.85 2.751 Q 299.2 5.501 294.25 10.451 Q 289.3 15.401 286.55 22.051 A 35.191 35.191 0 0 0 285.478 25.01 Z M 609.778 25.01 A 37.997 37.997 0 0 0 608.1 36.401 A 42.319 42.319 0 0 0 608.124 37.835 A 36.774 36.774 0 0 0 610.85 50.751 Q 613.6 57.401 618.55 62.351 Q 623.5 67.301 630.15 70.051 A 35.191 35.191 0 0 0 633.11 71.122 A 37.997 37.997 0 0 0 644.5 72.801 A 42.319 42.319 0 0 0 645.935 72.776 A 36.774 36.774 0 0 0 658.85 70.051 Q 665.5 67.301 670.45 62.351 Q 675.4 57.401 678.15 50.751 A 35.191 35.191 0 0 0 679.222 47.791 A 37.997 37.997 0 0 0 680.9 36.401 A 42.319 42.319 0 0 0 680.876 34.966 A 36.774 36.774 0 0 0 678.15 22.051 Q 675.4 15.401 670.45 10.451 Q 665.5 5.501 658.85 2.751 A 35.191 35.191 0 0 0 655.89 1.679 A 37.997 37.997 0 0 0 644.5 0.001 A 42.319 42.319 0 0 0 643.065 0.025 A 36.774 36.774 0 0 0 630.15 2.751 Q 623.5 5.501 618.55 10.451 Q 613.6 15.401 610.85 22.051 A 35.191 35.191 0 0 0 609.778 25.01 Z M 1222.178 25.01 A 37.997 37.997 0 0 0 1220.5 36.401 A 42.319 42.319 0 0 0 1220.524 37.835 A 36.774 36.774 0 0 0 1223.25 50.751 Q 1226 57.401 1230.95 62.351 Q 1235.9 67.301 1242.55 70.051 A 35.191 35.191 0 0 0 1245.51 71.122 A 37.997 37.997 0 0 0 1256.9 72.801 A 42.319 42.319 0 0 0 1258.335 72.776 A 36.774 36.774 0 0 0 1271.25 70.051 Q 1277.9 67.301 1282.85 62.351 Q 1287.8 57.401 1290.55 50.751 A 35.191 35.191 0 0 0 1291.622 47.791 A 37.997 37.997 0 0 0 1293.3 36.401 A 42.319 42.319 0 0 0 1293.276 34.966 A 36.774 36.774 0 0 0 1290.55 22.051 Q 1287.8 15.401 1282.85 10.451 Q 1277.9 5.501 1271.25 2.751 A 35.191 35.191 0 0 0 1268.29 1.679 A 37.997 37.997 0 0 0 1256.9 0.001 A 42.319 42.319 0 0 0 1255.465 0.025 A 36.774 36.774 0 0 0 1242.55 2.751 Q 1235.9 5.501 1230.95 10.451 Q 1226 15.401 1223.25 22.051 A 35.191 35.191 0 0 0 1222.178 25.01 Z M 166.9 71.401 L 166.9 1.401 L 173.7 1.401 L 173.7 69.401 Q 175.132 69.401 177.815 69.06 A 101.183 101.183 0 0 0 179.7 68.801 L 196.3 66.301 L 196.3 71.401 L 166.9 71.401 Z M 1047.1 71.401 L 1047.1 1.401 L 1053.9 1.401 L 1053.9 69.401 Q 1055.332 69.401 1058.015 69.06 A 101.183 101.183 0 0 0 1059.9 68.801 L 1076.5 66.301 L 1076.5 71.401 L 1047.1 71.401 Z M 1378.5 71.401 L 1378.5 1.401 L 1385.3 1.401 L 1385.3 69.401 Q 1386.732 69.401 1389.415 69.06 A 101.183 101.183 0 0 0 1391.3 68.801 L 1407.9 66.301 L 1407.9 71.401 L 1378.5 71.401 Z M 291.4 36.401 A 48.852 48.852 0 0 0 292.191 45.403 A 36.458 36.458 0 0 0 295 54.251 A 29.943 29.943 0 0 0 300.256 62.092 A 26.656 26.656 0 0 0 305.1 66.151 A 26.091 26.091 0 0 0 317.049 70.251 A 32.594 32.594 0 0 0 320.2 70.401 A 29.449 29.449 0 0 0 328.745 69.201 A 25.231 25.231 0 0 0 335.3 66.151 A 27.405 27.405 0 0 0 344.204 56.523 A 33.613 33.613 0 0 0 345.4 54.201 A 37.594 37.594 0 0 0 348.451 43.925 A 49.584 49.584 0 0 0 349 36.401 A 48.178 48.178 0 0 0 348.209 27.47 A 36.501 36.501 0 0 0 345.4 18.651 Q 341.8 11.001 335.3 6.701 Q 328.8 2.401 320.2 2.401 A 29.428 29.428 0 0 0 311.903 3.531 A 24.915 24.915 0 0 0 305.15 6.651 Q 298.7 10.901 295.05 18.551 Q 291.4 26.201 291.4 36.401 Z M 615.7 36.401 A 48.852 48.852 0 0 0 616.491 45.403 A 36.458 36.458 0 0 0 619.3 54.251 A 29.943 29.943 0 0 0 624.556 62.092 A 26.656 26.656 0 0 0 629.4 66.151 A 26.091 26.091 0 0 0 641.349 70.251 A 32.594 32.594 0 0 0 644.5 70.401 A 29.449 29.449 0 0 0 653.045 69.201 A 25.231 25.231 0 0 0 659.6 66.151 A 27.405 27.405 0 0 0 668.504 56.523 A 33.613 33.613 0 0 0 669.7 54.201 A 37.594 37.594 0 0 0 672.751 43.925 A 49.584 49.584 0 0 0 673.3 36.401 A 48.178 48.178 0 0 0 672.509 27.47 A 36.501 36.501 0 0 0 669.7 18.651 Q 666.1 11.001 659.6 6.701 Q 653.1 2.401 644.5 2.401 A 29.428 29.428 0 0 0 636.203 3.531 A 24.915 24.915 0 0 0 629.45 6.651 Q 623 10.901 619.35 18.551 Q 615.7 26.201 615.7 36.401 Z M 1228.1 36.401 A 48.852 48.852 0 0 0 1228.891 45.403 A 36.458 36.458 0 0 0 1231.7 54.251 A 29.943 29.943 0 0 0 1236.956 62.092 A 26.656 26.656 0 0 0 1241.8 66.151 A 26.091 26.091 0 0 0 1253.749 70.251 A 32.594 32.594 0 0 0 1256.9 70.401 A 29.449 29.449 0 0 0 1265.445 69.201 A 25.231 25.231 0 0 0 1272 66.151 A 27.405 27.405 0 0 0 1280.904 56.523 A 33.613 33.613 0 0 0 1282.1 54.201 A 37.594 37.594 0 0 0 1285.151 43.925 A 49.584 49.584 0 0 0 1285.7 36.401 A 48.178 48.178 0 0 0 1284.909 27.47 A 36.501 36.501 0 0 0 1282.1 18.651 Q 1278.5 11.001 1272 6.701 Q 1265.5 2.401 1256.9 2.401 A 29.428 29.428 0 0 0 1248.603 3.531 A 24.915 24.915 0 0 0 1241.85 6.651 Q 1235.4 10.901 1231.75 18.551 Q 1228.1 26.201 1228.1 36.401 Z M 1446.6 3.801 L 1431.4 3.801 L 1431.4 69.001 L 1446.6 69.001 A 39.284 39.284 0 0 0 1456.01 67.938 A 26.55 26.55 0 0 0 1469.25 60.401 A 28.301 28.301 0 0 0 1475.949 48.184 Q 1477.4 42.898 1477.4 36.401 A 46.78 46.78 0 0 0 1476.459 26.719 Q 1474.63 18.078 1469.25 12.401 A 26.74 26.74 0 0 0 1455.238 4.683 A 40.006 40.006 0 0 0 1446.6 3.801 Z M 875.7 6.601 L 875.1 6.601 L 865.8 36.201 L 886.9 36.201 L 875.7 6.601 Z"/></g>
  <style>
        /* .anim_e {
          animation-name: path826;
          stroke-dasharray: 92.9057604911 !important;
        }

        @keyframes path826 {
          0%, 0% {stroke-dashoffset: 92.9057604911;}
          100.0%, 100% {stroke-dashoffset: 0;}
        } */
</style>
</svg>
